<?xml version="1.0" standalone="no"?>
<!DOCTYPE svg PUBLIC "-//W3C//DTD SVG 20010904//EN"
 "http://www.w3.org/TR/2001/REC-SVG-20010904/DTD/svg10.dtd">
<svg version="1.0" xmlns="http://www.w3.org/2000/svg"
 width="501.000000pt" height="501.000000pt" viewBox="0 0 501.000000 501.000000"
 preserveAspectRatio="xMidYMid meet">
<metadata>
Created by potrace 1.14, written by Peter Selinger 2001-2017
</metadata>
<g transform="translate(0.000000,501.000000) scale(0.100000,-0.100000)"
fill="#000000" stroke="none">
<path d="M1370 4064 c-477 -62 -897 -335 -1143 -740 -39 -65 -127 -248 -127
-265 0 -5 -4 -17 -10 -27 -22 -40 -66 -223 -78 -327 -13 -115 -4 -447 13 -475
2 -3 6 -21 9 -40 8 -55 54 -205 82 -273 78 -186 209 -385 338 -512 21 -20 172
-150 191 -163 225 -161 420 -237 744 -291 29 -5 524 -9 1100 -9 1122 1 1149 2
1343 52 376 99 700 333 915 663 29 44 53 84 53 88 0 4 8 19 18 33 40 58 125
288 146 397 9 42 17 86 22 115 2 14 6 93 8 175 6 203 -6 301 -55 475 -49 169
-103 287 -205 440 -209 317 -534 550 -899 645 -90 23 -109 27 -234 44 -106 14
-2119 10 -2231 -5z"/>
</g>
</svg>
