<svg width="381" height="162" viewBox="0 0 381 162" fill="none" xmlns="http://www.w3.org/2000/svg">
<path d="M14.5977 39.4868H15.436C15.5347 39.5197 15.7977 39.5361 16.2251 39.5361C16.8169 43.2842 18.3621 46.2267 20.8608 48.3638C23.3595 50.5008 26.2199 51.5693 29.4419 51.5693C32.0063 51.5693 33.2886 51.0762 33.2886 50.0898C33.2886 49.6296 33.2064 49.2679 33.042 49.0049C32.2201 49.1693 31.1515 49.2515 29.8364 49.2515C26.7131 49.2515 24.0828 48.2651 21.9458 46.2925C19.8088 44.3198 18.7402 41.6896 18.7402 38.4019C18.7402 35.1141 19.7594 32.5003 21.7979 30.5605C23.8691 28.5879 26.5651 27.6016 29.8857 27.6016H30.7734C31.0365 27.6016 31.3981 27.6344 31.8584 27.7002C31.957 27.5029 32.0063 27.2892 32.0063 27.0591C32.0063 26.007 31.1351 25.481 29.3926 25.481C26.4993 25.481 23.8363 26.3193 21.4033 27.9961C19.0033 29.6729 17.3594 32.1387 16.4717 35.3936C11.54 35.3936 7.74268 34.2264 5.07959 31.8921C2.81104 29.9194 1.67676 27.3385 1.67676 24.1494C1.67676 18.7904 4.1097 14.3683 8.97559 10.8833C13.8743 7.39827 20.2362 5.65576 28.061 5.65576C35.9188 5.65576 42.3957 7.61198 47.4917 11.5244C52.5549 15.4368 55.0864 20.5 55.0864 26.7139C55.0864 30.8236 53.6069 34.21 50.6479 36.873C49.2013 36.1826 47.9355 35.8374 46.8506 35.8374C45.7656 35.8374 45.2231 36.2812 45.2231 37.1689C45.2231 37.5635 45.3218 37.8429 45.519 38.0073C48.1164 38.0073 50.4836 38.9608 52.6206 40.8677C55.2837 43.2349 56.6152 46.6048 56.6152 50.9775C56.6152 57.6188 53.8042 62.8464 48.1821 66.6602C43.0203 70.1452 36.4448 71.8877 28.4556 71.8877C20.4992 71.8877 13.9401 70.0959 8.77832 66.5122C3.64941 62.9285 1.08496 58.1613 1.08496 52.2104C1.08496 48.561 2.25212 45.5363 4.58643 43.1362C6.95361 40.7033 10.2907 39.4868 14.5977 39.4868ZM110.321 71.8384C107.132 71.8384 104.469 71.5918 102.332 71.0986C99.3726 70.474 97.2026 69.5041 95.8218 68.189C92.7313 61.6463 90.0846 54.479 87.8818 46.687C84.8242 35.9032 82.6872 24.7741 81.4707 13.2998C82.9502 11.1299 84.9722 9.45312 87.5366 8.26953C90.1011 7.05306 92.9614 6.44482 96.1177 6.44482C100.852 6.44482 104.567 7.34896 107.263 9.15723C109.992 10.9655 111.356 13.5464 111.356 16.8999C111.126 19.3986 110.913 23.0645 110.715 27.8975C110.551 32.7305 110.469 37.1032 110.469 41.0156C110.469 42.1006 110.567 42.9554 110.765 43.5801C110.995 44.1719 111.455 44.4678 112.146 44.4678C112.409 44.4678 112.737 44.4185 113.132 44.3198C113.099 44.0239 113.083 43.5308 113.083 42.8403V41.1143C113.083 36.347 113.247 30.8564 113.576 24.6426C113.904 18.3958 114.299 13.7437 114.759 10.686C117.751 8.84489 121.269 7.92432 125.313 7.92432C129.357 7.92432 132.612 8.48324 135.078 9.60107C138.037 10.9819 139.598 13.0039 139.763 15.667C139.598 18.889 139.286 22.0617 138.826 25.1851C138.398 28.3084 137.872 31.9085 137.248 35.9854C136.623 40.0622 136.228 42.7581 136.064 44.0732C136.327 44.2048 136.672 44.2705 137.1 44.2705C137.527 44.2705 137.922 44.1061 138.283 43.7773C138.645 43.4486 138.941 42.6595 139.171 41.4102C140.19 36.1497 141.028 30.6099 141.686 24.7905C142.344 18.9383 142.771 13.8423 142.968 9.50244C145.993 7.46403 150.168 6.44482 155.495 6.44482C159.802 6.44482 163.237 7.59554 165.802 9.89697C168.366 12.1655 169.648 15.2231 169.648 19.0698C169.648 21.6343 168.432 28.3577 165.999 39.2402C164.75 44.9609 163.55 49.8597 162.399 53.9365C161.248 57.9805 160.311 60.8244 159.588 62.4683C158.076 65.7889 155.807 68.189 152.782 69.6685C149.79 71.1151 145.96 71.8384 141.292 71.8384C139.417 71.8384 137.248 71.5589 134.782 71C132.349 70.4411 130.491 69.8164 129.209 69.126C128.551 68.1068 127.812 66.5615 126.99 64.4902C126.168 62.4189 125.658 60.8573 125.461 59.8052C124.179 59.8381 123.538 60.5285 123.538 61.8765C123.538 62.9285 124.047 64.8683 125.066 67.6958C121.614 70.4575 116.699 71.8384 110.321 71.8384ZM195.096 43.5308V52.1611C195.326 52.3913 195.704 52.5063 196.23 52.5063C196.756 52.5063 197.134 52.3255 197.364 51.9639C197.594 51.6022 197.709 50.9775 197.709 50.0898V43.0376C197.709 39.8813 197.578 37.7936 197.315 36.7744C197.052 35.7223 196.559 35.1963 195.835 35.1963C195.375 35.1963 194.981 35.3607 194.652 35.6895C194.948 38.9443 195.096 41.5581 195.096 43.5308ZM176.651 65.3779C171.259 60.1833 168.563 53.1475 168.563 44.2705C168.563 35.3607 171.095 28.3413 176.158 23.2124C181.254 18.0506 187.928 15.4697 196.181 15.4697C204.433 15.4697 211.107 18.1493 216.203 23.5083C221.266 28.8674 223.798 35.8538 223.798 44.4678C223.798 53.0488 221.348 59.8709 216.45 64.9341C211.584 69.9972 204.959 72.5288 196.575 72.5288C188.191 72.5288 181.55 70.1452 176.651 65.3779ZM241.009 71.6411C237.097 71.6411 233.973 70.9342 231.639 69.5205C229.042 68.041 227.743 65.8547 227.743 62.9614V37.5635C225.803 34.8346 224.833 31.4811 224.833 27.5029C224.833 23.4919 225.803 20.0233 227.743 17.0972H235.289C239.168 17.0972 241.946 18.3465 243.623 20.8452C242.801 21.7658 242.078 22.9329 241.453 24.3467C240.828 25.7604 240.516 26.7796 240.516 27.4043C240.516 27.9961 240.664 28.4399 240.96 28.7358C241.289 29.0317 241.749 29.1797 242.341 29.1797C243.492 24.6097 245.678 21.2562 248.9 19.1191C251.563 17.3109 254.851 16.4067 258.763 16.4067C263.629 16.4067 267.443 17.4424 270.205 19.5137C271.191 22.1439 271.684 25.3659 271.684 29.1797C271.684 32.9606 270.928 36.3963 269.416 39.4868C268.298 40.0786 266.752 40.5882 264.78 41.0156C262.807 41.4102 260.818 41.6074 258.812 41.6074C256.807 41.6074 254.999 41.4759 253.388 41.2129C251.81 40.917 250.659 40.654 249.936 40.4238C249.673 40.6868 249.541 41.0649 249.541 41.5581C249.541 42.0513 249.853 42.4294 250.478 42.6924C251.136 42.9225 252.221 43.1855 253.733 43.4814V68.2383C250.149 70.5068 245.908 71.6411 241.009 71.6411ZM301.225 36.0347C300.896 35.7059 300.501 35.5415 300.041 35.5415C299.318 35.5415 298.825 36.0675 298.562 37.1196C298.299 38.1388 298.167 40.2266 298.167 43.3828V48.4131C298.167 49.3008 298.282 49.9255 298.512 50.2871C298.742 50.6488 299.12 50.8296 299.646 50.8296C300.173 50.8296 300.551 50.7145 300.781 50.4844V43.876C300.781 40.654 300.929 38.0402 301.225 36.0347ZM297.674 6.88867C299.416 4.85026 301.34 3.32145 303.444 2.30225C305.548 1.25016 308.228 0.724121 311.482 0.724121C315.428 0.724121 318.633 1.82552 321.099 4.02832C323.631 6.39551 324.896 9.58464 324.896 13.5957V46.1445C324.896 51.0433 326.08 54.2324 328.447 55.7119C328.48 55.8763 328.497 56.1886 328.497 56.6489V57.5366C328.497 62.2052 327.083 65.8382 324.255 68.4355C321.757 70.737 318.666 71.8877 314.984 71.8877C312.419 71.8877 310.2 71.3452 308.326 70.2603C306.123 69.0109 304.578 67.3013 303.69 65.1313C302.573 65.1313 302.014 65.6738 302.014 66.7588C302.014 67.252 302.194 67.8273 302.556 68.4849C302.951 69.1095 303.477 69.6685 304.134 70.1616C302.194 71.3123 299.679 71.8877 296.589 71.8877C292.413 71.8877 288.501 70.9342 284.852 69.0273C281.235 67.0876 278.358 64.1779 276.221 60.2983C273.755 55.8599 272.522 50.4844 272.522 44.1719C272.522 35.7552 274.873 29.1468 279.575 24.3467C284.309 19.5465 290.342 17.1465 297.674 17.1465C302.014 17.1465 305.795 17.9684 309.017 19.6123C309.378 19.2507 309.559 18.8726 309.559 18.478C309.559 17.4917 308.392 16.6533 306.058 15.9629C303.723 15.2725 301.373 14.9272 299.005 14.9272C299.005 11.5737 298.562 8.89421 297.674 6.88867ZM356.903 32.3359C356.048 32.599 355.621 33.1086 355.621 33.8647V34.1113C355.621 34.2757 355.637 34.3743 355.67 34.4072C356.032 34.3743 356.508 34.3579 357.1 34.3579H358.284C362.032 34.3579 365.533 34.9333 368.788 36.084C372.076 37.2018 374.755 39.0101 376.827 41.5088C379.128 44.3363 380.279 47.9035 380.279 52.2104C380.279 58.9175 377.961 63.9806 373.325 67.3999C368.689 70.8192 362.492 72.5288 354.733 72.5288C346.974 72.5288 340.891 71.2466 336.486 68.6821C332.113 66.1177 329.927 62.3532 329.927 57.3887C329.927 55.5475 330.321 53.8708 331.11 52.3584C331.899 50.8132 332.787 49.7282 333.773 49.1035C335.582 50.6159 338.195 51.931 341.615 53.0488C345.067 54.1338 348.716 54.6763 352.563 54.6763C354.108 54.6763 354.881 54.2489 354.881 53.394C354.881 52.9995 354.832 52.6707 354.733 52.4077C354.503 52.4406 354.223 52.457 353.895 52.457H353.352C346.382 52.457 340.809 51.0762 336.634 48.3145C331.899 45.1911 329.532 40.7855 329.532 35.0977C329.532 29.4098 331.653 24.807 335.894 21.2891C340.596 17.4095 347.056 15.4697 355.275 15.4697C359.319 15.4697 363.084 15.8971 366.569 16.752C370.087 17.6068 373.095 18.741 375.594 20.1548C376.218 21.5028 376.531 23.4919 376.531 26.1221C376.531 30.1331 375.429 33.2072 373.227 35.3442C371.55 34.4237 369.495 33.6675 367.062 33.0757C364.662 32.451 362.492 32.1387 360.552 32.1387C358.612 32.1387 357.396 32.2044 356.903 32.3359ZM16.0166 148.489C13.0339 148.489 10.6527 147.95 8.87305 146.872C6.8929 145.744 5.90283 144.077 5.90283 141.872V124.238H7.06836C8.32161 124.238 8.94824 123.825 8.94824 122.998C8.94824 122.897 8.92318 122.747 8.87305 122.546H2.63184C1.17806 120.466 0.451172 117.897 0.451172 114.839C0.451172 111.781 1.17806 109.137 2.63184 106.906H5.90283C6.50439 102.745 8.13363 99.5617 10.7905 97.356C13.4474 95.1502 16.9816 94.0474 21.3931 94.0474C24.5513 94.0474 27.2959 94.4985 29.627 95.4009C31.958 96.3032 33.6624 97.3309 34.7402 98.4839C34.9909 99.311 35.1162 100.314 35.1162 101.492V102.206C35.1162 104.788 34.7402 107.056 33.9883 109.011C32.2588 109.688 29.84 110.026 26.7319 110.026C25.4536 110.026 24.05 109.939 22.521 109.763C21.0171 109.588 19.9017 109.412 19.1748 109.237C18.9993 109.412 18.9116 109.663 18.9116 109.989C18.9116 110.415 19.5132 110.816 20.7163 111.192C21.9194 111.543 23.862 111.718 26.5439 111.718C29.251 111.718 31.4692 111.568 33.1987 111.267C33.3742 111.668 33.5371 112.433 33.6875 113.561C33.863 114.663 33.9507 115.754 33.9507 116.832C33.9507 119.138 33.5246 121.042 32.6724 122.546H25.7168V145.895C22.9847 147.624 19.7513 148.489 16.0166 148.489ZM54.291 127.058V133.638C54.4665 133.813 54.7547 133.901 55.1558 133.901C55.5568 133.901 55.8451 133.763 56.0205 133.487C56.196 133.212 56.2837 132.735 56.2837 132.059V126.682C56.2837 124.276 56.1834 122.684 55.9829 121.907C55.7824 121.105 55.4064 120.704 54.855 120.704C54.5041 120.704 54.2033 120.829 53.9526 121.08C54.1782 123.562 54.291 125.554 54.291 127.058ZM40.2295 143.714C36.1188 139.754 34.0635 134.39 34.0635 127.622C34.0635 120.829 35.9935 115.478 39.8535 111.568C43.7386 107.633 48.8268 105.665 55.1182 105.665C61.4095 105.665 66.4977 107.708 70.3828 111.793C74.2428 115.879 76.1729 121.205 76.1729 127.772C76.1729 134.314 74.3055 139.515 70.5708 143.375C66.8612 147.236 61.8105 149.166 55.4189 149.166C49.0273 149.166 43.9642 147.348 40.2295 143.714ZM89.2944 148.489C86.3117 148.489 83.9305 147.95 82.1509 146.872C80.1707 145.744 79.1807 144.077 79.1807 141.872V122.509C77.7018 120.428 76.9624 117.872 76.9624 114.839C76.9624 111.781 77.7018 109.137 79.1807 106.906H84.9331C87.8908 106.906 90.0088 107.858 91.2871 109.763C90.6605 110.465 90.109 111.355 89.6328 112.433C89.1566 113.51 88.9185 114.287 88.9185 114.764C88.9185 115.215 89.0312 115.553 89.2568 115.779C89.5075 116.004 89.8584 116.117 90.3096 116.117C91.1868 112.633 92.8537 110.076 95.3101 108.447C97.3403 107.069 99.8468 106.379 102.83 106.379C106.539 106.379 109.447 107.169 111.552 108.748C112.304 110.753 112.68 113.21 112.68 116.117C112.68 119 112.104 121.619 110.951 123.975C110.098 124.426 108.92 124.815 107.417 125.141C105.913 125.441 104.396 125.592 102.867 125.592C101.338 125.592 99.9596 125.492 98.7314 125.291C97.5283 125.065 96.651 124.865 96.0996 124.689C95.8991 124.89 95.7988 125.178 95.7988 125.554C95.7988 125.93 96.0369 126.218 96.5132 126.419C97.0145 126.594 97.8416 126.795 98.9946 127.021V145.895C96.2625 147.624 93.0291 148.489 89.2944 148.489ZM145.578 99.499H167.272C167.999 100.702 168.538 102.018 168.889 103.447C169.24 104.85 169.415 106.116 169.415 107.244C169.415 109.776 168.914 111.681 167.911 112.959C166.934 114.237 165.555 114.876 163.775 114.876H148.624C147.696 114.876 147.232 115.24 147.232 115.967V116.268C147.232 116.418 147.257 116.518 147.308 116.568H165.279C165.73 117.345 166.119 118.323 166.445 119.501C166.746 120.779 166.896 121.92 166.896 122.922C166.896 125.905 166.345 128.236 165.242 129.916H157.083C153.273 129.916 150.691 130.066 149.338 130.367C147.984 130.642 147.145 130.881 146.819 131.081C146.493 131.307 146.33 131.595 146.33 131.946C146.33 132.297 146.506 132.572 146.856 132.773C148.16 132.347 149.526 132.046 150.955 131.871C152.834 131.695 154.877 131.607 157.083 131.607H167.648C169.177 133.763 169.941 136.357 169.941 139.39C169.941 141.095 169.728 142.724 169.302 144.278C168.876 145.832 168.237 147.085 167.385 148.038H139.224C136.116 148.038 133.622 147.286 131.742 145.782C129.687 144.178 128.659 141.821 128.659 138.713V102.958C128.659 101.755 130.038 100.878 132.795 100.326C135.552 99.7747 139.813 99.499 145.578 99.499ZM191.974 131.607C192.274 131.607 192.6 131.482 192.951 131.231C192.701 130.404 192.575 129.113 192.575 127.359V108.786C195.232 107.181 198.428 106.379 202.163 106.379C204.268 106.379 206.11 106.668 207.689 107.244C209.294 107.796 210.522 108.535 211.374 109.462V129.051C211.374 132.785 212.276 135.217 214.081 136.345C214.106 136.47 214.119 136.708 214.119 137.059V137.736C214.119 141.395 213.154 144.165 211.224 146.045C209.469 147.799 207.05 148.677 203.967 148.677C202.037 148.677 200.283 148.238 198.704 147.361C197.15 146.484 195.984 145.205 195.207 143.526C194.355 143.526 193.929 143.939 193.929 144.767C193.929 145.343 194.217 145.92 194.793 146.496C193.991 147.148 193.026 147.674 191.898 148.075C190.771 148.476 189.104 148.677 186.898 148.677C184.717 148.677 182.587 148.226 180.506 147.323C177.925 146.22 175.944 144.528 174.566 142.248C172.887 139.541 172.047 136.107 172.047 131.946V122.509C170.769 120.278 170.129 117.822 170.129 115.14C170.129 113.761 170.305 112.332 170.656 110.854C171.007 109.375 171.571 108.059 172.348 106.906H180.619C183.727 106.906 186.159 107.645 187.913 109.124C189.693 110.578 190.583 112.796 190.583 115.779V127.96C190.583 130.392 191.046 131.607 191.974 131.607ZM226.451 148.489C223.468 148.489 221.087 147.95 219.307 146.872C217.327 145.744 216.337 144.077 216.337 141.872V122.509C214.858 120.428 214.119 117.872 214.119 114.839C214.119 111.781 214.858 109.137 216.337 106.906H222.089C225.047 106.906 227.165 107.858 228.443 109.763C227.817 110.465 227.265 111.355 226.789 112.433C226.313 113.51 226.075 114.287 226.075 114.764C226.075 115.215 226.188 115.553 226.413 115.779C226.664 116.004 227.015 116.117 227.466 116.117C228.343 112.633 230.01 110.076 232.466 108.447C234.497 107.069 237.003 106.379 239.986 106.379C243.695 106.379 246.603 107.169 248.708 108.748C249.46 110.753 249.836 113.21 249.836 116.117C249.836 119 249.26 121.619 248.107 123.975C247.255 124.426 246.077 124.815 244.573 125.141C243.069 125.441 241.552 125.592 240.023 125.592C238.494 125.592 237.116 125.492 235.888 125.291C234.685 125.065 233.807 124.865 233.256 124.689C233.055 124.89 232.955 125.178 232.955 125.554C232.955 125.93 233.193 126.218 233.669 126.419C234.171 126.594 234.998 126.795 236.151 127.021V145.895C233.419 147.624 230.185 148.489 226.451 148.489ZM270.703 127.058V133.638C270.879 133.813 271.167 133.901 271.568 133.901C271.969 133.901 272.257 133.763 272.433 133.487C272.608 133.212 272.696 132.735 272.696 132.059V126.682C272.696 124.276 272.596 122.684 272.395 121.907C272.194 121.105 271.819 120.704 271.267 120.704C270.916 120.704 270.615 120.829 270.365 121.08C270.59 123.562 270.703 125.554 270.703 127.058ZM256.642 143.714C252.531 139.754 250.476 134.39 250.476 127.622C250.476 120.829 252.406 115.478 256.266 111.568C260.151 107.633 265.239 105.665 271.53 105.665C277.822 105.665 282.91 107.708 286.795 111.793C290.655 115.879 292.585 121.205 292.585 127.772C292.585 134.314 290.718 139.515 286.983 143.375C283.273 147.236 278.223 149.166 271.831 149.166C265.439 149.166 260.376 147.348 256.642 143.714ZM314.843 127.697V132.735C315.018 132.911 315.306 132.999 315.708 132.999C316.109 132.999 316.397 132.861 316.572 132.585C316.748 132.309 316.835 131.833 316.835 131.156V127.321C316.835 124.915 316.735 123.323 316.535 122.546C316.334 121.744 315.958 121.343 315.407 121.343C315.056 121.343 314.755 121.469 314.504 121.719C314.73 124.201 314.843 126.193 314.843 127.697ZM302.849 111.493C302.849 112.245 303.288 112.621 304.165 112.621C305.669 110.264 307.436 108.522 309.466 107.395C311.497 106.242 313.94 105.665 316.798 105.665C319.655 105.665 322.262 106.116 324.618 107.019C327.852 108.297 330.408 110.352 332.288 113.185C334.644 116.769 335.822 121.469 335.822 127.284C335.822 133.826 334.068 138.914 330.559 142.548C327.075 146.158 322.237 147.962 316.046 147.962C312.587 147.962 309.892 147.536 307.962 146.684C307.787 146.784 307.699 146.997 307.699 147.323C307.699 148.075 308.276 148.614 309.429 148.94C310.607 149.266 312.625 149.504 315.482 149.654V159.655C312.9 160.808 310.068 161.385 306.985 161.385C303.35 161.385 300.606 160.721 298.751 159.392C296.646 157.963 295.593 155.77 295.593 152.812V122.546C294.114 120.466 293.375 117.884 293.375 114.801C293.375 113.548 293.575 112.182 293.976 110.703C294.377 109.224 294.916 107.958 295.593 106.906H300.932C303.112 106.906 304.779 107.207 305.932 107.808C303.877 109.337 302.849 110.565 302.849 111.493ZM359.922 149.166C352.979 149.166 347.503 147.236 343.492 143.375C339.382 139.49 337.326 134.177 337.326 127.434C337.326 120.667 339.444 115.303 343.68 111.342C347.59 107.658 352.541 105.815 358.531 105.815C364.522 105.815 369.322 107.47 372.931 110.778C376.566 114.062 378.383 118.11 378.383 122.922C378.383 127.208 376.891 130.442 373.909 132.623C371.152 134.678 367.392 135.706 362.629 135.706C359.07 135.706 356.062 134.966 353.606 133.487C353.405 133.638 353.305 133.913 353.305 134.314C353.305 135.066 354.295 135.756 356.275 136.382C358.256 137.059 360.499 137.397 363.005 137.397C365.537 137.397 367.83 137.084 369.886 136.458C371.966 135.806 373.633 135.041 374.886 134.164C375.488 134.69 375.964 135.668 376.315 137.097C376.691 138.5 376.879 139.791 376.879 140.969C376.879 142.122 376.766 143.15 376.541 144.052C374.585 145.707 372.58 146.885 370.525 147.586C367.617 148.639 364.083 149.166 359.922 149.166ZM359.434 123.712C360.687 123.712 361.313 123.236 361.313 122.283C361.313 121.381 360.649 120.93 359.321 120.93C357.992 120.93 357.228 121.644 357.027 123.073C357.729 123.499 358.531 123.712 359.434 123.712Z" fill="white"/>
</svg>
