<svg width="25" height="25" viewBox="0 0 25 25" fill="none" xmlns="http://www.w3.org/2000/svg">
<path fill-rule="evenodd" clip-rule="evenodd" d="M11.7284 3.84519C12.1954 4.03866 12.5 4.49446 12.5 5.00004V20C12.5 20.5056 12.1954 20.9614 11.7284 21.1549C11.2613 21.3484 10.7236 21.2414 10.3661 20.8839L5.73223 16.25H2.5C1.80964 16.25 1.25 15.6904 1.25 15V10C1.25 9.30968 1.80964 8.75004 2.5 8.75004H5.73223L10.3661 4.11615C10.7236 3.75866 11.2613 3.65171 11.7284 3.84519Z" fill="white"/>
<path fill-rule="evenodd" clip-rule="evenodd" d="M18.3211 3.6611C18.8092 3.17294 19.6007 3.17294 20.0888 3.6611C22.3495 5.92179 23.75 9.0485 23.75 12.4999C23.75 15.9514 22.3495 19.0781 20.0888 21.3388C19.6007 21.8269 18.8092 21.8269 18.3211 21.3388C17.8329 20.8506 17.8329 20.0592 18.3211 19.571C20.1321 17.76 21.25 15.2617 21.25 12.4999C21.25 9.73816 20.1321 7.23988 18.3211 5.42887C17.8329 4.94071 17.8329 4.14925 18.3211 3.6611ZM14.7855 7.19663C15.2737 6.70848 16.0651 6.70848 16.5533 7.19663C17.2106 7.85398 17.7471 8.63359 18.1254 9.49947C18.5275 10.4199 18.75 11.4356 18.75 12.4999C18.75 14.5707 17.9092 16.4474 16.5533 17.8032C16.0651 18.2914 15.2737 18.2914 14.7855 17.8032C14.2974 17.3151 14.2974 16.5236 14.7855 16.0355C15.6917 15.1293 16.25 13.881 16.25 12.4999C16.25 11.7865 16.1013 11.1111 15.8345 10.5004C15.5829 9.92448 15.2252 9.40409 14.7855 8.9644C14.2974 8.47625 14.2974 7.68479 14.7855 7.19663Z" fill="white"/>
</svg>
